<svg width="84" height="88" viewBox="0 0 84 88" fill="none" xmlns="http://www.w3.org/2000/svg">
<path d="M35.7068 87.9843H16.7385C16.5075 87.9843 16.2765 87.9843 16.0454 87.9843C15.4517 87.9843 15.0127 87.7394 14.9942 87.0902C14.9757 86.3971 15.4401 86.1244 16.0616 86.1175C17.6788 86.1013 19.2961 86.0644 20.9134 86.1175C21.7174 86.1475 21.9808 85.9743 21.9692 85.1056C21.9184 80.8984 21.93 76.6911 21.9507 72.4839C21.9877 65.8739 26.4422 60.4028 32.9182 58.9773C40.1798 57.3785 47.7047 62.3135 49.1187 69.6051C49.3306 70.7084 49.4359 71.8295 49.4329 72.9529C49.4329 77.0446 49.4514 81.1363 49.4121 85.228C49.4121 85.9766 49.6293 86.1383 50.3363 86.1129C51.8958 86.0621 53.4553 86.099 55.0148 86.0967C55.6894 86.0967 56.3733 86.1684 56.3825 87.0348C56.3918 87.9012 55.7172 87.9774 55.0333 87.9774C48.5889 87.9789 42.1467 87.9812 35.7068 87.9843ZM28.3136 78.6734C28.3136 80.9191 28.3344 83.1648 28.2974 85.4105C28.2974 85.9951 28.473 86.1291 29.0275 86.1244C33.4681 86.106 37.9102 86.106 42.3538 86.1244C42.9199 86.1244 43.077 85.9697 43.0724 85.4013C43.0493 81.0832 43.0724 76.7651 43.0539 72.4446C43.0621 71.4773 42.8785 70.518 42.5136 69.6221C42.1488 68.7263 41.6099 67.9116 40.9281 67.2254C40.2464 66.5391 39.4353 65.9949 38.5419 65.6241C37.6484 65.2533 36.6903 65.0633 35.723 65.0652C31.5897 65.0513 28.3505 68.2743 28.3159 72.4585C28.302 74.5263 28.3275 76.601 28.3275 78.6734H28.3136Z" fill="url(#paint0_linear_2424_707)"/>
<path d="M74.7663 25.7958C72.8271 21.0903 70.8879 16.3848 68.9487 11.6793C68.8379 11.4159 68.7038 11.1641 68.5814 10.9053L66.5367 5.76931C66.1716 3.81934 66.6637 2.15354 68.2764 0.942893C69.7042 -0.13144 71.2961 -0.267773 72.9342 0.432277C73.4678 0.65613 73.9511 0.984748 74.3554 1.39865C74.7598 1.81256 75.0771 2.30336 75.2885 2.84203C77.8738 9.10781 80.473 15.369 83.0236 21.6509C83.4486 22.6879 83.4779 23.8447 83.1061 24.9019C82.7343 25.959 81.9872 26.8427 81.0067 27.3853C78.9689 28.5151 76.5268 27.9999 75.0412 26.1239C74.9534 26.0107 74.8587 25.9044 74.7663 25.7958Z" fill="url(#paint1_linear_2424_707)"/>
<path d="M40.5955 33.977C42.0332 35.1426 43.081 36.7191 43.599 38.4961C44.5924 43.3849 41.8846 46.8135 38.6108 48.1142C33.6365 50.0942 28.0662 46.6402 27.5879 41.3009C27.5556 40.9289 27.5255 40.5546 27.4955 40.1827L27.7866 38.2835C28.5652 36.1256 29.829 34.3559 31.9269 33.3116C34.9373 31.8283 37.8322 32.1564 40.5955 33.977Z" fill="#496EF9"/>
<path d="M6.36019 35.3654C6.93317 36.7517 7.50542 38.131 8.07686 39.5034C9.07649 41.9324 10.0777 44.3606 11.0804 46.788C11.5101 48.5324 11.0549 49.9186 9.7819 50.7503C9.18478 51.1387 8.48036 51.3288 7.76893 51.2935C7.05751 51.2582 6.37538 50.9995 5.8196 50.554C5.34825 50.1693 4.98648 49.6672 4.77067 49.0984C3.28047 45.4803 1.76714 41.8669 0.304661 38.2396C-0.446217 36.3912 0.23076 34.5429 1.89655 33.7736C3.56235 33.0042 5.33207 33.6026 6.36019 35.3654Z" fill="url(#paint2_linear_2424_707)"/>
<path fill-rule="evenodd" clip-rule="evenodd" d="M10.6523 33.6169L10.6548 33.6159C14.4216 32.0823 18.188 30.5488 21.9532 28.9935C24.9567 27.7528 27.3387 25.6827 29.3465 23.1621C31.2779 20.7223 33.7963 19.0912 36.6265 17.9244C44.5327 14.6652 52.4489 11.4307 60.375 8.22078C60.9804 7.97536 61.5813 7.71848 62.1823 7.46158C63.6181 6.84783 65.054 6.23402 66.5507 5.77637L68.5954 10.9124L68.5916 10.9177C68.6317 11.0021 68.673 11.0858 68.7142 11.1694C68.7973 11.338 68.8803 11.5062 68.9532 11.6795C70.894 16.3835 72.8331 21.0889 74.7708 25.796L44.3452 38.256C44.1591 38.336 43.9549 38.3921 43.7545 38.4471C43.7061 38.4603 43.658 38.4735 43.6105 38.487C43.0882 36.7137 42.0379 35.1416 40.5996 33.9804C37.8288 32.163 34.9449 31.8363 31.9456 33.3186C29.8478 34.356 28.584 36.1326 27.8054 38.2906C27.7996 38.2907 27.7937 38.2908 27.7879 38.2909L27.4979 40.1828C25.4661 40.9097 23.4752 41.7392 21.4845 42.5685C20.4442 43.002 19.404 43.4353 18.358 43.854C17.2611 44.2943 16.1628 44.7378 15.0637 45.1816C13.7343 45.7185 12.4038 46.2558 11.0733 46.7882C10.0752 44.3608 9.07408 41.9326 8.06982 39.5036C8.0744 39.5037 8.07898 39.5039 8.08357 39.5041C7.50839 38.123 6.93399 36.7436 6.36035 35.3656C7.791 34.7819 9.22165 34.1994 10.6523 33.6169Z" fill="url(#paint3_linear_2424_707)"/>
<defs>
<linearGradient id="paint0_linear_2424_707" x1="35.6881" y1="58.6758" x2="35.6881" y2="87.9843" gradientUnits="userSpaceOnUse">
<stop stop-color="#204CF1"/>
<stop offset="1" stop-color="#133CD3"/>
</linearGradient>
<linearGradient id="paint1_linear_2424_707" x1="74.8938" y1="0" x2="74.8938" y2="27.9793" gradientUnits="userSpaceOnUse">
<stop stop-color="#204CF1"/>
<stop offset="1" stop-color="#0F36C7"/>
</linearGradient>
<linearGradient id="paint2_linear_2424_707" x1="5.61893" y1="33.4443" x2="5.61893" y2="51.2977" gradientUnits="userSpaceOnUse">
<stop stop-color="#204CF1"/>
<stop offset="1" stop-color="#0F36C7"/>
</linearGradient>
<linearGradient id="paint3_linear_2424_707" x1="77.5" y1="13.0002" x2="-27" y2="56.0003" gradientUnits="userSpaceOnUse">
<stop stop-color="#BE0B31"/>
<stop offset="1" stop-color="#FB1E4D"/>
</linearGradient>
</defs>
</svg>
