<svg width="81" height="89" viewBox="0 0 81 89" fill="none" xmlns="http://www.w3.org/2000/svg">
<path d="M53.4769 79.3155C56.5301 82.4251 60.194 84.5734 64.2527 86.0767C66.9756 87.0797 69.8232 87.7043 72.7159 87.9332C72.8609 87.9608 73.0042 87.9969 73.145 88.0411C72.1641 88.1515 8.94392 88.1466 8.13708 88.0166C10.4736 87.7761 12.7818 87.3137 15.0307 86.6359C19.3533 85.3269 23.3318 83.0755 26.6796 80.0439C26.9248 79.8207 27.1431 79.5534 27.3712 79.3082C28.3154 78.4906 29.1562 77.5608 29.875 76.5394C32.1649 73.7532 33.8269 70.506 34.7479 67.0192C35.0769 66.1878 35.297 65.3173 35.4027 64.4295C35.7853 62.7888 35.8711 61.1164 35.9889 59.4438C36.0257 58.8896 35.8858 58.7081 35.2997 58.7081C33.4359 58.7473 31.5697 58.7277 29.7034 58.7081C29.3944 58.7081 29.0609 58.7915 28.7494 58.6075L30.6721 56.3317C31.1065 55.9757 31.4822 55.5537 31.7855 55.081C33.5536 53.2417 35.2311 51.3215 36.8791 49.3768C37.6424 48.6267 38.3536 47.8253 39.0078 46.9783C39.1574 46.8336 39.3168 46.6963 39.4565 46.5442C40.3811 45.5388 40.3786 45.5363 41.3081 46.4241C42.1358 47.4756 43.0252 48.4771 43.9714 49.4233L50.1661 56.3661L52.1845 58.7498H51.5591C49.5702 58.7498 47.5813 58.7792 45.5949 58.7351C44.9254 58.7179 44.7488 58.9215 44.8346 59.5542C44.9327 60.2776 44.9131 61.0256 45.0088 61.7417C45.254 63.5344 45.4134 65.3467 46.1123 67.0438C47.3876 71.8358 49.9111 75.8871 53.4769 79.3155Z" fill="url(#paint0_linear_2424_689)"/>
<path d="M30.6721 56.3632L28.7495 58.639C29.0609 58.8229 29.3945 58.7371 29.7035 58.7395C31.5697 58.7395 33.436 58.769 35.2998 58.7395C35.8859 58.7395 36.0355 58.9088 35.9889 59.4753C35.8712 61.1478 35.7854 62.8203 35.4028 64.461C34.0197 64.5419 32.6782 64.2501 31.3465 63.9705C27.1903 63.0985 23.2774 61.3208 19.8865 58.7641C19.7222 58.6415 19.5775 58.5605 19.4304 58.7641C16.6414 56.0044 14.4684 52.6854 13.0542 49.0256C10.8615 43.5357 10.384 37.5103 11.6847 31.7436C12.9854 25.9769 16.0032 20.7398 20.3402 16.7228C25.1739 12.23 30.91 9.61082 37.5069 8.99527C45.8255 8.21296 53.1679 10.5672 59.5785 15.9036C59.7241 16.0141 59.8774 16.1141 60.0371 16.2029C60.0751 16.2871 60.0828 16.3818 60.0592 16.4712C60.0355 16.5605 59.9818 16.639 59.9071 16.6933C58.0155 18.5719 56.1296 20.452 54.2494 22.3338C53.9502 22.6355 53.7589 22.5324 53.4794 22.3117C48.8517 18.6111 43.5913 17.0636 37.7007 17.8312C32.5384 18.5032 28.2001 20.8256 24.8355 24.769C20.5266 29.8185 18.9865 35.6871 20.2152 42.208C20.8863 45.8681 22.6015 49.2561 25.1543 51.9636C26.6576 53.8372 28.5999 55.1762 30.6721 56.3632Z" fill="#BE0B31"/>
<path d="M53.4768 79.3152C49.911 75.8819 47.3875 71.8355 46.1196 67.0361C46.5512 66.9871 46.951 66.7541 47.3998 66.8203C47.6842 67.9092 48.1355 68.9392 48.5107 69.9961C48.7363 70.6338 49.0012 70.6976 49.5407 70.3444C51.7135 68.9122 53.5528 67.1931 54.5975 64.748C54.7079 64.5028 54.8599 64.2576 54.5313 64.0344L56.942 62.563C57.6434 64.0639 58.6734 65.3562 59.6862 66.6437C62.1956 69.8832 65.2423 72.6679 68.6939 74.8764C72.4632 77.2577 76.517 78.8223 81 79.3104L53.4768 79.3152Z" fill="#B0BFFA"/>
<path d="M56.9347 62.5679L54.524 64.0393C52.2351 65.1799 49.8483 66.1122 47.3925 66.8252C46.9437 66.759 46.5439 66.992 46.1123 67.0411C45.4134 65.344 45.2466 63.5317 45.0087 61.739C44.9131 61.0155 44.9327 60.2675 44.8346 59.5514C44.7488 58.9187 44.9254 58.7152 45.5949 58.7323C47.5813 58.7765 49.5702 58.7471 51.5591 58.7471H52.1844L50.1661 56.3633L51.0293 55.966C52.1305 56.4712 52.746 57.5135 53.4548 58.3817C54.2739 59.392 54.5804 59.2277 55.4412 58.4969C56.8582 57.3429 58.1938 56.0925 59.4386 54.7546C61.6394 52.2934 63.402 49.4732 64.6499 46.4164C66.6756 41.4405 67.3696 36.2905 66.5382 30.9394C65.9544 27.326 64.7488 23.8411 62.9749 20.6394C62.7518 20.2274 62.5213 20.0557 62.1436 20.4481C60.4269 22.2261 58.5631 23.8814 56.942 25.7501L56.0469 24.7888C58.0432 22.773 60.0378 20.7571 62.0308 18.7412C62.0813 18.6846 62.1466 18.6432 62.2194 18.6215C62.2921 18.5999 62.3695 18.5989 62.4428 18.6186C64.569 21.201 66.4058 23.9599 67.6664 27.0818C70.1803 33.2264 70.5373 40.0417 68.6791 46.4154C66.8209 52.789 62.8572 58.3446 57.435 62.1755C57.2609 62.2957 57.1015 62.4355 56.9347 62.5679ZM52.5376 60.2136H48.5132C46.0608 60.2136 46.0608 60.2136 46.4704 62.6243C46.474 62.6544 46.474 62.6849 46.4704 62.715C46.4704 63.051 46.62 63.1246 46.9388 63.0191C48.9326 62.3594 50.8503 61.5575 52.5376 60.2136Z" fill="#BE0B31"/>
<path d="M34.7478 67.0288C33.8268 70.5156 32.1648 73.7629 29.8749 76.549C28.3863 76.6005 26.9321 76.9463 25.4606 77.0836C21.8066 77.4245 18.1501 77.8316 14.4838 77.9738C11.9578 78.0695 9.42939 78.2436 6.89852 78.1995C6.35065 78.1733 5.80206 78.2329 5.27258 78.3761C5.70175 77.6575 6.53066 77.7409 7.17073 77.4687C10.5076 76.0464 13.5976 74.1036 16.3255 71.7129C19.185 69.2311 21.5123 66.3397 23.5699 63.2006C23.7341 63.0188 23.8415 62.7929 23.8789 62.5508C24.1413 62.7004 24.4135 62.8353 24.6685 62.9996C27.7458 64.963 31.1651 66.3299 34.7478 67.0288Z" fill="#D3DCFF"/>
<path d="M70.9722 5.51068C70.9229 5.72 70.8045 5.90662 70.6362 6.0404C67.6034 9.06011 64.5698 12.0798 61.5354 15.0995C61.3882 15.2467 61.2631 15.438 61.0081 15.4134C60.731 13.3927 60.4784 11.367 60.1645 9.35113C60.0932 9.0089 60.1125 8.65403 60.2205 8.32156C60.3285 7.98908 60.5213 7.69053 60.78 7.45544C63.0689 5.20414 65.339 2.9406 67.5903 0.664783C68.0808 0.174305 68.5933 -0.156774 69.307 0.076203C70.0206 0.30918 70.2879 0.912455 70.3885 1.6261C70.5626 2.92341 70.7735 4.21582 70.9722 5.51068Z" fill="#204CF1"/>
<path d="M63.2373 17.6158C63.6052 17.0076 64.1717 16.5784 64.667 16.0879C67.4857 13.2807 70.3125 10.4809 73.1474 7.68848C74.4766 7.88467 75.8058 8.08822 77.1375 8.2746C77.7923 8.36779 78.3073 8.63755 78.5525 9.28253C78.7977 9.92751 78.5696 10.4695 78.0988 10.9379C75.7576 13.2726 73.4188 15.6097 71.0825 17.9493C70.886 18.1643 70.6386 18.3266 70.3632 18.4213C70.0877 18.516 69.7928 18.54 69.5056 18.4913C67.4162 18.1896 65.3267 17.9052 63.2373 17.6158Z" fill="#204CF1"/>
<path d="M5.26527 78.3758C5.79475 78.2327 6.34334 78.1731 6.89121 78.1993C9.42208 78.2434 11.9505 78.0693 14.4765 77.9736C18.1551 77.8314 21.7993 77.4243 25.4534 77.0834C26.9248 76.9461 28.3962 76.593 29.8677 76.5488C29.1488 77.5702 28.308 78.5 27.3638 79.3175H0C1.78044 79.1091 3.51182 78.6824 5.26527 78.3758Z" fill="#E0E7FE"/>
<path d="M34.7479 67.0288C31.1626 66.3307 27.7408 64.9639 24.6613 62.9996C24.416 62.8353 24.134 62.7004 23.8716 62.5508C22.3413 61.3417 20.7252 60.2333 19.4303 58.7496C19.5774 58.5362 19.7221 58.6171 19.8864 58.7496C23.2773 61.3063 27.1902 63.0839 31.3465 63.956C32.6781 64.238 34.0196 64.5298 35.4027 64.4465C35.2963 65.3318 35.0762 66.1998 34.7479 67.0288Z" fill="#D82047"/>
<path d="M30.9859 45.1656C27.1307 40.4129 28.1509 32.6855 33.1268 28.9603C37.4062 25.755 42.4459 25.5784 47.0172 28.4428C47.5616 28.7837 47.5714 28.975 47.1177 29.4237C44.5623 31.9301 42.0241 34.4561 39.503 37.0017C38.554 37.9557 38.836 39.2995 40.0229 39.6208C40.5723 39.7704 41.0431 39.5571 41.4944 39.2628C42.2767 39.8047 42.7844 39.7532 43.6304 38.9096C45.2417 37.3229 46.8332 35.7215 48.4396 34.125C48.599 33.9656 48.7387 33.6345 49.0036 33.7669C49.2047 33.8699 49.2488 34.1741 49.2488 34.4291C49.2646 35.3409 49.2105 36.2526 49.087 37.1561C48.5818 40.1505 47.0956 42.5342 44.7855 44.4594C43.7432 45.3275 42.4852 45.8033 41.3276 46.458C40.3982 45.5703 40.4006 45.5727 39.4761 46.5782C39.3363 46.7303 39.1769 46.8676 39.0273 47.0123C37.3548 47.027 35.6847 47.0123 34.0833 46.4458C33.117 46.1025 32.1606 45.7248 31.1993 45.3618H31.2213L30.9859 45.1656Z" fill="#496EF9"/>
<path d="M44.9033 49.1779C44.56 49.1313 44.2755 49.3153 43.9714 49.4232C43.0264 48.4896 42.137 47.5012 41.3081 46.4631C42.4656 45.8083 43.7237 45.3326 44.766 44.4644C47.0762 42.5393 48.5623 40.1556 49.0675 37.1612C49.191 36.2577 49.2451 35.3459 49.2293 34.4341C49.2293 34.1889 49.1975 33.875 48.9841 33.772C48.7192 33.6396 48.5794 33.9706 48.42 34.13C46.8137 35.7192 45.2319 37.3181 43.6109 38.9146C42.7648 39.746 42.2572 39.8098 41.4749 39.2678C44.1921 36.4746 46.9216 33.696 49.7689 31.0376L50.4703 31.9646C50.5708 32.1829 50.6615 32.4085 50.7744 32.6243C53.3592 37.6174 52.3316 43.2628 48.1699 47.037C47.1988 47.9223 45.9971 48.4667 44.9033 49.1779Z" fill="#496EF9"/>
<path d="M31.1797 45.3594C32.141 45.7223 33.0975 46.0951 34.0637 46.4434C35.6651 47.0099 37.3352 47.0245 39.0077 47.0098C38.3536 47.8568 37.6424 48.6582 36.879 49.4083C34.8861 48.785 33.0956 47.6413 31.6922 46.0951C31.4911 45.8768 31.2165 45.6978 31.1797 45.3594Z" fill="#496EF9"/>
<path d="M25.1394 51.949C25.4085 51.9436 25.6702 52.0369 25.8751 52.2114C27.5189 53.3529 29.3299 54.2323 31.2434 54.8182C31.4396 54.8771 31.6726 54.8918 31.7854 55.1125C31.4821 55.5852 31.1064 56.0073 30.672 56.3633C28.5997 55.1763 26.6574 53.8373 25.1394 51.949Z" fill="#C5DCEF"/>
<path d="M47.3925 66.8205C49.8483 66.1076 52.2351 65.1752 54.524 64.0347C54.8526 64.2456 54.7006 64.4908 54.5902 64.7483C53.5455 67.2007 51.7062 68.9174 49.5334 70.3447C48.9988 70.6978 48.729 70.634 48.5034 69.9964C48.1257 68.9394 47.6769 67.9094 47.3925 66.8205Z" fill="#E3EEF8"/>
<path d="M51.0293 55.961C52.4492 54.8599 53.9378 53.8545 55.1984 52.5424C58.3325 49.266 60.2527 45.4305 60.8389 40.9181C61.5484 35.4738 60.2994 30.5249 57.0916 26.0713C57.0332 25.9664 56.9863 25.8553 56.9518 25.7402C58.5729 23.8617 60.4318 22.2162 62.1533 20.4382C62.531 20.0458 62.7615 20.2175 62.9847 20.6295C64.7586 23.8312 65.9642 27.3161 66.548 30.9295C67.3794 36.2807 66.6854 41.4306 64.6597 46.4065C63.4118 49.4633 61.6491 52.2835 59.4484 54.7447C58.2036 56.0826 56.868 57.3331 55.451 58.487C54.5902 59.2227 54.2836 59.3822 53.4645 58.3718C52.7533 57.5159 52.1304 56.4662 51.0293 55.961Z" fill="#D82047"/>
<path d="M52.5376 60.2139C50.8503 61.5578 48.9326 62.3597 46.9437 63.0194C46.6249 63.1248 46.4802 63.0513 46.4753 62.7153C46.4789 62.6852 46.4789 62.6547 46.4753 62.6246C46.0657 60.2139 46.0657 60.2139 48.5181 60.2139H52.5376Z" fill="#D82047"/>
<defs>
<linearGradient id="paint0_linear_2424_689" x1="40.6411" y1="45.7734" x2="40.6411" y2="88.1193" gradientUnits="userSpaceOnUse">
<stop stop-color="#133CD5"/>
<stop offset="1" stop-color="#4A70FF"/>
</linearGradient>
</defs>
</svg>
